<?xml version="1.0" ?><!DOCTYPE svg  PUBLIC '-//W3C//DTD SVG 1.1 Tiny//EN'  'http://www.w3.org/Graphics/SVG/1.1/DTD/svg11-tiny.dtd'><svg baseProfile="tiny" height="128px" id="Layer_1" overflow="scroll" version="1.1" viewBox="0 0 128 128" width="128px" xml:space="preserve" xmlns="http://www.w3.org/2000/svg" xmlns:xlink="http://www.w3.org/1999/xlink"><g><path d="M37.7,33.5V37c-4,0.3-7.6,2-10.3,4.7c-2.9,2.9-4.7,6.9-4.7,11.4c0,4.4,1.8,8.5,4.7,11.4   c2.7,2.7,6.4,4.5,10.5,4.7c1.7,12,12.1,21.3,24.5,21.3h7.3c13.6,0,24.8-11.2,24.8-24.8V33.5H37.7z M29.7,53.1c0-2.5,1-4.8,2.7-6.4   c1.4-1.4,3.2-2.3,5.3-2.6v18c-2.1-0.3-3.9-1.2-5.3-2.6C30.7,57.8,29.7,55.6,29.7,53.1z" fill="#955F26"/><path d="M27,90.1h78.3v0c0,2.4-2,4.4-4.4,4.4H31.3C28.9,94.5,27,92.6,27,90.1L27,90.1z" fill="#955F26" fill-rule="evenodd"/></g></svg>